<?xml version="1.0" encoding="UTF-8" standalone="no"?>
<!-- Created with Inkscape (http://www.inkscape.org/) -->

<svg
   xmlns:dc="http://purl.org/dc/elements/1.1/"
   xmlns:cc="http://creativecommons.org/ns#"
   xmlns:rdf="http://www.w3.org/1999/02/22-rdf-syntax-ns#"
   xmlns:svg="http://www.w3.org/2000/svg"
   xmlns="http://www.w3.org/2000/svg"
   xmlns:xlink="http://www.w3.org/1999/xlink"
   xmlns:sodipodi="http://sodipodi.sourceforge.net/DTD/sodipodi-0.dtd"
   xmlns:inkscape="http://www.inkscape.org/namespaces/inkscape"
   width="1920"
   height="1080"
   id="svg2"
   version="1.1"
   inkscape:version="0.48.5 r10040"
   sodipodi:docname="splash.svg"
   inkscape:export-filename="../assets/textures/splash.png"
   inkscape:export-xdpi="90"
   inkscape:export-ydpi="90">
  <defs
     id="defs4" />
  <sodipodi:namedview
     id="base"
     pagecolor="#ffffff"
     bordercolor="#666666"
     borderopacity="1.0"
     inkscape:pageopacity="0.0"
     inkscape:pageshadow="2"
     inkscape:zoom="0.49497475"
     inkscape:cx="532.70933"
     inkscape:cy="311.38177"
     inkscape:document-units="px"
     inkscape:current-layer="layer1"
     showgrid="false"
     inkscape:window-width="2558"
     inkscape:window-height="1379"
     inkscape:window-x="2560"
     inkscape:window-y="27"
     inkscape:window-maximized="1" />
  <metadata
     id="metadata7">
    <rdf:RDF>
      <cc:Work
         rdf:about="">
        <dc:format>image/svg+xml</dc:format>
        <dc:type
           rdf:resource="http://purl.org/dc/dcmitype/StillImage" />
        <dc:title></dc:title>
      </cc:Work>
    </rdf:RDF>
  </metadata>
  <g
     inkscape:label="Layer 1"
     inkscape:groupmode="layer"
     id="layer1"
     transform="translate(0,27.637832)">
    <image
       sodipodi:absref="/home/xymus/projects/nit/contrib/hollnit/art/splash_back.jpg"
       xlink:href="splash_back.jpg"
       width="1933.7841"
       height="1289.1893"
       id="image2993"
       x="-1.4648297"
       y="-56.500843" />
    <text
       xml:space="preserve"
       style="font-size:167.02766418px;font-style:normal;font-variant:normal;font-weight:normal;font-stretch:normal;line-height:125%;letter-spacing:0px;word-spacing:0px;fill:#ffffff;fill-opacity:1;stroke:none;font-family:Armalite Rifle;-inkscape-font-specification:Armalite Rifle"
       x="667.60944"
       y="180.32715"
       id="text2996"
       sodipodi:linespacing="125%"><tspan
         sodipodi:role="line"
         id="tspan2998"
         x="667.60944"
         y="180.32715">Action Nitro</tspan></text>
    <g
       transform="matrix(2.0178149,0,0,2.0178149,921.10427,-44.877914)"
       id="0created"
       inkscape:label="#g3706">
      <g
         transform="translate(-345.42576,172.39956)"
         id="g3454">
        <g
           transform="translate(-4.0354898,0)"
           id="0created_by"
           inkscape:label="#g3016"
           style="fill:#ffffff">
          <path
             inkscape:connector-curvature="0"
             id="path3524"
             d="m 173.75,297.9375 c -4.582,0.75892 -9.04504,-0.29407 -13.5,0.65625 -5.49283,-1.16209 -10.04994,2.50228 -13.15625,6.46875 -5.82442,9.60561 -2.46164,24.88157 9.25,27.9375 7.85179,3.52935 18.37212,-1.11184 19.21875,-10.09375 0.40864,-2.74503 -1.01509,-5.90189 -3.3125,-7.15625 6.88247,-3.51512 2.37691,-12.11599 3.90625,-17.9375 -0.80208,0.0417 -1.60417,0.0833 -2.40625,0.125 z M 162.75,309 c 1.55533,2.17513 3.01902,5.98353 4.59375,7.21875 -2.06672,0.9734 -2.65657,7.52479 -5.65625,6.125 -0.21186,-4.17364 -0.43114,-9.08095 0.75,-13.125 0.0918,-0.0758 0.17674,-0.2257 0.3125,-0.21875 z"
             style="font-size:40px;font-style:normal;font-variant:normal;font-weight:normal;font-stretch:normal;line-height:125%;letter-spacing:0px;word-spacing:0px;fill:#000000;fill-opacity:1;stroke:none;font-family:Armalite Rifle;-inkscape-font-specification:Armalite Rifle" />
          <path
             inkscape:connector-curvature="0"
             id="path3526"
             d="m 183.9375,298.3125 c -5.06439,0.007 -12.86509,-0.92334 -14.15625,5.65625 -0.99233,2.479 1.10561,4.54924 2.625,5.9375 0.19812,3.36054 0.28916,7.96655 -0.84375,11.03125 -3.90593,2.07447 -2.1965,8.45661 0.1875,11.1875 5.66565,3.89538 12.94523,-0.11683 18.96875,1.375 5.71268,2.0059 15.35848,-1.7937 11.34375,-8.84375 -0.91562,-2.42954 -5.38807,-4.07816 -2,-6.6875 4.80549,-7.01491 0.31791,-19.8507 -9.21875,-18.90625 -2.2721,-0.44732 -4.67713,-0.23212 -6.90625,-0.75 z"
             style="font-size:40px;font-style:normal;font-variant:normal;font-weight:normal;font-stretch:normal;line-height:125%;letter-spacing:0px;word-spacing:0px;fill:#000000;fill-opacity:1;stroke:none;font-family:Armalite Rifle;-inkscape-font-specification:Armalite Rifle" />
          <path
             inkscape:connector-curvature="0"
             id="path3528"
             d="m 200.21875,298.03125 c -3.92241,1.69406 -4.95515,7.37414 -2.5,10.875 -0.50913,4.98326 0.55059,11.0881 -0.5625,15.8125 -3.11477,4.35294 1.96493,10.76912 7.03125,9.25 4.76681,-0.0999 9.30348,0.23342 13.875,-0.90625 4.81631,2.19094 8.7792,-3.05722 7.5625,-7.59375 0.13695,-3.01559 0.27538,-7.49123 -3.75,-7.78125 1.14946,-1.553 -1.03532,-4.89284 2.25,-3.75 1.42807,-4.88928 3.48296,-13.84985 -3.5,-15.4375 -6.78285,-0.13712 -13.73204,0.0513 -20.40625,-0.46875 z"
             style="font-size:40px;font-style:normal;font-variant:normal;font-weight:normal;font-stretch:normal;line-height:125%;letter-spacing:0px;word-spacing:0px;fill:#000000;fill-opacity:1;stroke:none;font-family:Armalite Rifle;-inkscape-font-specification:Armalite Rifle" />
          <path
             inkscape:connector-curvature="0"
             id="path3530"
             d="m 231.09375,298.0625 c -5.79885,-1.80724 -10.54137,5.968 -6.1875,10.09375 2.10797,0.89452 -1.15994,3.57006 -0.5625,5.3125 -2.9424,2.565 -0.8906,8.0597 -5.4375,9.125 -5.54349,2.96273 -1.85515,11.14123 3.75,11 3.40443,0.34533 7.47332,0.27415 10.28125,-1.09375 4.56375,2.75719 10.14601,0.15325 15.03125,0.0625 4.56712,-1.74454 4.90745,-9.27849 -0.0937,-10.375 -1.73664,-5.60284 -3.35222,-11.94718 -6.03125,-16.71875 0.96348,-6.20749 -5.91402,-8.0508 -10.75,-7.40625 z"
             style="font-size:40px;font-style:normal;font-variant:normal;font-weight:normal;font-stretch:normal;line-height:125%;letter-spacing:0px;word-spacing:0px;fill:#000000;fill-opacity:1;stroke:none;font-family:Armalite Rifle;-inkscape-font-specification:Armalite Rifle" />
          <path
             inkscape:connector-curvature="0"
             id="path3532"
             d="m 257.78125,298.625 c -4.80422,2.17351 -12.00124,-2.25365 -15.25,3.21875 -0.18043,3.43536 -0.29029,7.00182 -0.1875,10.5 0.58704,3.85343 5.90701,4.06339 8.125,3.21875 0.18652,2.72212 1.92442,7.39043 -1.625,8.53125 0.10822,5.31406 4.49609,10.85648 10.25,9.71875 4.57192,1.31254 10.17907,-1.73479 9.71875,-6.9375 0.56048,-3.4972 -4.01942,-4.4888 -2.59375,-8.125 -0.89339,-2.59095 3.0723,-1.51815 3.9375,-3.6875 6.45741,-2.38123 1.53395,-10.59812 4.53125,-15.21875 -5.62616,-0.46607 -11.25466,-1.28061 -16.90625,-1.21875 z"
             style="font-size:40px;font-style:normal;font-variant:normal;font-weight:normal;font-stretch:normal;line-height:125%;letter-spacing:0px;word-spacing:0px;fill:#000000;fill-opacity:1;stroke:none;font-family:Armalite Rifle;-inkscape-font-specification:Armalite Rifle" />
          <path
             inkscape:connector-curvature="0"
             id="path3534"
             d="m 271.3125,298.03125 c -3.92241,1.69406 -4.95515,7.37414 -2.5,10.875 -0.50913,4.98326 0.55059,11.0881 -0.5625,15.8125 -3.11477,4.35294 1.96493,10.76912 7.03125,9.25 4.76681,-0.0999 9.30348,0.23342 13.875,-0.90625 4.77956,2.17465 8.839,-3.02779 7.5625,-7.59375 0.2419,-3.0128 0.22311,-7.49306 -3.75,-7.78125 1.14946,-1.553 -1.03532,-4.89284 2.25,-3.75 1.42807,-4.88928 3.48296,-13.84985 -3.5,-15.4375 -6.78285,-0.13712 -13.73204,0.0513 -20.40625,-0.46875 z"
             style="font-size:40px;font-style:normal;font-variant:normal;font-weight:normal;font-stretch:normal;line-height:125%;letter-spacing:0px;word-spacing:0px;fill:#000000;fill-opacity:1;stroke:none;font-family:Armalite Rifle;-inkscape-font-specification:Armalite Rifle" />
          <path
             inkscape:connector-curvature="0"
             id="path3536"
             d="m 293.1875,299.15625 c -2.4023,2.69306 -4.60784,7.82665 -0.96875,10.4375 -0.19862,6.79442 0.54159,13.54519 -1.53125,20.0625 0.0989,6.07691 7.82849,4.14239 11.65625,3.90625 3.20124,-0.67746 6.42749,1.86188 9.65625,-0.0937 7.43874,-1.54275 12.82034,-8.71008 11.21875,-16.28125 -0.71164,-4.56806 1.64314,-9.64212 -2.46875,-13.15625 -3.79083,-4.57017 -10.22915,-5.66991 -15.625,-4.90625 -3.51463,-1.74322 -7.78304,1.13261 -10.96875,-1.4375 l -0.55059,0.83477 -0.41816,0.63398 z"
             style="font-size:40px;font-style:normal;font-variant:normal;font-weight:normal;font-stretch:normal;line-height:125%;letter-spacing:0px;word-spacing:0px;fill:#000000;fill-opacity:1;stroke:none;font-family:Armalite Rifle;-inkscape-font-specification:Armalite Rifle" />
          <path
             inkscape:connector-curvature="0"
             id="path3538"
             d="m 333.03125,298.15625 c -5.43366,0.0905 -6.42037,6.93188 -3.53125,10.5 -0.65116,4.7897 0.56243,10.53635 -0.75,14.84375 -3.7703,4.71495 2.02974,11.60813 7.5625,10.1875 5.81056,-2.00287 12.26987,1.78207 17.625,-2.03125 3.17583,-2.12444 3.64773,-6.24583 5.03125,-9.40625 1.28679,-3.31941 -2.49128,-6.17506 -0.28125,-8.96875 2.75873,-7.42468 -4.15904,-16.64897 -12.1875,-14.71875 -4.56543,0.73386 -8.88783,-0.51862 -13.46875,-0.40625 z"
             style="font-size:40px;font-style:normal;font-variant:normal;font-weight:normal;font-stretch:normal;line-height:125%;letter-spacing:0px;word-spacing:0px;fill:#000000;fill-opacity:1;stroke:none;font-family:Armalite Rifle;-inkscape-font-specification:Armalite Rifle" />
          <path
             inkscape:connector-curvature="0"
             id="path3540"
             d="m 372.4375,298.34375 c -2.68343,-0.50667 -3.90562,4.91113 -5.4375,1.53125 -2.89055,-2.10614 -6.826,-0.97548 -10.21875,-1.4375 -5.56702,-0.1702 -8.87569,8.66229 -3.09375,10.90625 3.83299,0.54608 3.89747,4.64258 5.65625,7.3125 1.53207,3.25107 0.49352,5.95251 -1.71875,8.28125 -1.79475,5.22629 3.86271,10.23789 8.90625,8.46875 3.55792,1.07646 7.44233,0.25746 9.125,-3.21875 2.57723,-2.29743 1.84169,-5.74244 0.4375,-8.21875 -0.0854,-2.92627 -2.03346,-6.66588 1.625,-7.8125 1.61389,-1.72818 1.70746,-6.44328 5.1875,-4.03125 3.01751,-4.59394 0.12348,-13.56415 -6.375,-11.46875 -1.42395,1.11512 -2.6293,-0.50573 -4.09375,-0.3125 z"
             style="font-size:40px;font-style:normal;font-variant:normal;font-weight:normal;font-stretch:normal;line-height:125%;letter-spacing:0px;word-spacing:0px;fill:#000000;fill-opacity:1;stroke:none;font-family:Armalite Rifle;-inkscape-font-specification:Armalite Rifle" />
          <path
             inkscape:connector-curvature="0"
             id="path3542"
             d="m 384.875,304.5625 c -6.9767,0.30014 -8.27448,11.95297 -1.09375,13.375 4.82735,1.94568 8.67152,-2.46731 8.71875,-6.90625 0.60236,-4.25833 -3.79475,-6.99019 -7.625,-6.46875 z m -0.0312,15.71875 c -6.88666,0.33358 -8.25817,11.82965 -1.1875,13.34375 4.21549,1.78991 8.48949,-1.49776 8.625,-5.8125 1.53551,-4.54683 -3.16003,-8.20707 -7.4375,-7.53125 z"
             style="font-size:40px;font-style:normal;font-variant:normal;font-weight:normal;font-stretch:normal;line-height:125%;letter-spacing:0px;word-spacing:0px;fill:#000000;fill-opacity:1;stroke:none;font-family:Armalite Rifle;-inkscape-font-specification:Armalite Rifle" />
          <text
             sodipodi:linespacing="125%"
             id="text2993"
             y="329.61194"
             x="147.61847"
             style="font-size:40px;font-style:normal;font-variant:normal;font-weight:normal;font-stretch:normal;line-height:125%;letter-spacing:0px;word-spacing:0px;fill:#ffffff;fill-opacity:1;stroke:none;font-family:Armalite Rifle;-inkscape-font-specification:Armalite Rifle"
             xml:space="preserve"><tspan
               y="329.61194"
               x="147.61847"
               id="tspan2995"
               sodipodi:role="line">Created by:</tspan></text>
        </g>
      </g>
      <g
         transform="translate(0,122.55926)"
         id="g3434">
        <path
           style="font-size:40px;font-style:normal;font-variant:normal;font-weight:normal;font-stretch:normal;line-height:125%;letter-spacing:0px;word-spacing:0px;fill:#000000;fill-opacity:1;stroke:none;font-family:Armalite Rifle;-inkscape-font-specification:Armalite Rifle"
           d="m 87.90625,376.53125 c -5.053084,-1.44768 -9.933304,3.72691 -7.4375,8.53125 1.204487,1.73042 2.364438,2.42644 0.5,4.1875 -1.675144,4.31302 -1.572276,10.59033 -6.59375,12.3125 -4.223957,4.1998 0.555541,12.13965 6.3125,10.59375 3.105622,0.71911 6.597552,-0.90862 9.125,-1 4.563068,2.47407 9.881827,-0.23905 14.625,-0.0937 5.1318,-1.76939 4.62197,-9.38607 0.0937,-11.375 -3.52158,-6.59121 -3.99999,-14.56845 -7.75,-20.90625 -2.345252,-2.22964 -5.789415,-2.44635 -8.875,-2.25 z"
           id="path3203"
           inkscape:connector-curvature="0" />
        <path
           style="font-size:40px;font-style:normal;font-variant:normal;font-weight:normal;font-stretch:normal;line-height:125%;letter-spacing:0px;word-spacing:0px;fill:#000000;fill-opacity:1;stroke:none;font-family:Armalite Rifle;-inkscape-font-specification:Armalite Rifle"
           d="m 109.78125,374.34375 c -2.02683,1.19404 -3.30834,2.5917 -5.875,2.4375 -4.397137,1.11678 -6.761932,7.07359 -3.34375,10.40625 0.63918,5.46287 1.63942,11.69731 -1.375,16.46875 -1.431337,4.6097 2.23747,10.46226 7.40625,8.875 4.90401,-0.76183 9.78543,-1.09232 14.71875,-0.625 4.18693,0.23336 7.92425,-3.18373 7.1875,-7.4375 1.81754,-4.93207 -1.22956,-11.80153 -7.21875,-10.71875 -2.63799,-0.69723 -2.1054,-0.43057 -3.40625,2.75 -0.47834,1.59505 -2.23668,-2.26631 -0.8125,-2.84375 0.0264,-3.26007 -0.79641,-7.14518 2.1875,-9.15625 2.1476,-4.51913 -2.81779,-8.18856 -6.5,-8.25 -0.19565,-1.37288 -1.62605,-2.33991 -2.96875,-1.90625 z"
           id="path3205"
           inkscape:connector-curvature="0" />
        <path
           style="font-size:40px;font-style:normal;font-variant:normal;font-weight:normal;font-stretch:normal;line-height:125%;letter-spacing:0px;word-spacing:0px;fill:#000000;fill-opacity:1;stroke:none;font-family:Armalite Rifle;-inkscape-font-specification:Armalite Rifle"
           d="m 125.9375,376.53125 c -3.81848,2.12879 -4.39498,7.58715 -2.0625,11.125 -0.89561,4.91385 0.70261,10.76265 -0.625,15.3125 -3.37838,4.7564 2.58993,11.42307 7.9375,9.40625 6.0964,-0.2516 12.60987,-0.0937 18.25,-1.34375 3.8086,-3.63697 3.25813,-11.27351 -0.5,-14.5625 -2.05727,-0.0511 -0.0709,-3.53851 -0.25,-4.25 3.79722,0.0624 2.29487,-5.91733 2.9375,-9.03125 0.27164,-5.05379 -5.13577,-7.45872 -9.53125,-6.28125 -5.38618,-0.32545 -10.86155,0.10584 -16.15625,-0.375 z"
           id="path3207"
           inkscape:connector-curvature="0" />
        <path
           style="font-size:40px;font-style:normal;font-variant:normal;font-weight:normal;font-stretch:normal;line-height:125%;letter-spacing:0px;word-spacing:0px;fill:#000000;fill-opacity:1;stroke:none;font-family:Armalite Rifle;-inkscape-font-specification:Armalite Rifle"
           d="m 149.15625,376.46875 c -6.14027,0.89312 -6.05802,10.3673 -0.5,12 0.27224,2.79184 4.38637,5.58356 3.03125,8.1875 -1.38874,2.73366 -3.81511,5.54553 -7.53125,5.03125 -2.07522,5.2565 2.46507,11.6463 8.25,10.1875 3.65115,0.0658 7.0449,-1.6271 10.5,-0.125 3.57355,-0.20627 7.52079,2.61976 10.5625,-0.71875 3.16931,-3.05436 2.79115,-8.69564 -1,-10.9375 -1.64247,-2.78198 -3.74085,-6.08107 -4.40625,-8.90625 2.15302,-3.7009 8.89444,-4.7298 7.875,-10.25 -0.51333,-3.4269 -3.55358,-4.5051 -6.5625,-3.84375 -2.85109,-0.98277 -6.23248,0.38165 -8.5625,0.28125 -3.64173,-1.7454 -8.16212,0.34545 -11.65625,-0.90625 z"
           id="path3209"
           inkscape:connector-curvature="0" />
        <path
           style="font-size:40px;font-style:normal;font-variant:normal;font-weight:normal;font-stretch:normal;line-height:125%;letter-spacing:0px;word-spacing:0px;fill:#000000;fill-opacity:1;stroke:none;font-family:Armalite Rifle;-inkscape-font-specification:Armalite Rifle"
           d="m 173.65625,376.84375 c -7.04708,0.97773 -4.94783,9.55042 -2.59375,13.84375 -1.22593,3.41927 0.22537,7.41689 -0.96875,10.65625 -4.63351,3.7195 -0.2514,13.56992 6.0625,10.5625 5.59853,2.09406 15.09795,-0.79709 12.25,-8.21875 -0.99338,-1.93641 -3.97219,-2.83946 -2.40625,-5.40625 0.0774,-4.38795 -1.40895,-9.53547 2.21875,-12.8125 2.31273,-4.66873 -2.66906,-10.38331 -7.5625,-8.375 -2.33294,0.11902 -4.66515,-0.52561 -7,-0.25 z"
           id="path3211"
           inkscape:connector-curvature="0" />
        <path
           style="font-size:40px;font-style:normal;font-variant:normal;font-weight:normal;font-stretch:normal;line-height:125%;letter-spacing:0px;word-spacing:0px;fill:#000000;fill-opacity:1;stroke:none;font-family:Armalite Rifle;-inkscape-font-specification:Armalite Rifle"
           d="m 205.0625,376.9375 c -2.2641,0.97174 -5.26852,-0.85711 -7.59375,0.21875 -4.45467,-1.53312 -9.6047,0.74569 -12.8125,3.75 -2.12686,4.88908 -2.87613,11.24396 0.75,15.8125 -4.55996,2.26902 -3.57146,8.1542 -2.4375,12.1875 1.09695,3.431 4.98109,3.73162 7.75,2.6875 5.63665,-0.3246 12.13795,2.52899 16.75,-2.25 5.61251,-4.41114 6.3903,-13.46699 1.28125,-18.5 2.16837,-1.11519 4.41657,-1.56083 3.21875,-4.4375 0.57505,-4.46033 -0.99597,-11.19864 -6.90625,-9.46875 z"
           id="path3213"
           inkscape:connector-curvature="0" />
        <path
           style="font-size:40px;font-style:normal;font-variant:normal;font-weight:normal;font-stretch:normal;line-height:125%;letter-spacing:0px;word-spacing:0px;fill:#000000;fill-opacity:1;stroke:none;font-family:Armalite Rifle;-inkscape-font-specification:Armalite Rifle"
           d="m 222.78125,376.625 c -5.43095,0.1826 -8.72618,6.95035 -4.875,11.03125 0.92092,4.2659 0.2894,9.07297 0.34375,13.28125 -4.56234,4.05938 -1.16142,13.30405 5.40625,11.6875 2.79993,-1.21545 4.89894,0.44672 7.4375,0.5 3.13066,-2.84547 7.72803,0.22945 11.3125,-1.96875 4.49665,-2.16473 3.55306,-8.2904 3.46875,-12.40625 -0.5302,-5.55818 -10.84795,-7.2367 -10.8125,-0.625 -2.27535,3.64678 -0.0833,-4.5654 -0.78125,-6.1875 -1.47606,-4.90204 4.4448,-8.14646 2.09375,-12.75 -2.92465,-4.39166 -9.28486,-1.30441 -13.59375,-2.5625 z"
           id="path3215"
           inkscape:connector-curvature="0" />
        <path
           style="font-size:40px;font-style:normal;font-variant:normal;font-weight:normal;font-stretch:normal;line-height:125%;letter-spacing:0px;word-spacing:0px;fill:#000000;fill-opacity:1;stroke:none;font-family:Armalite Rifle;-inkscape-font-specification:Armalite Rifle"
           d="m 251.75,376.46875 c -5.28265,-1.60141 -10.20632,4.58754 -7.125,9.1875 1.91973,1.26729 1.8517,2.10894 0.5,3.96875 0.0129,3.11427 -2.63228,5.43264 -2.8125,8.65625 -2.20916,3.03006 -7.67045,5.40017 -5.0625,10 2.57375,4.71156 8.91413,3.92645 13.25,3.90625 1.80359,-1.06952 2.88857,-1.92349 4.71875,-0.375 4.4566,0.90453 9.15254,-0.46963 13.53125,-0.9375 4.27585,-1.98568 4.47327,-9.19208 -0.375,-10.25 -1.75541,-5.66958 -3.54098,-12.04215 -6.03125,-16.90625 0.70369,-6.04048 -5.79595,-7.84978 -10.59375,-7.25 z"
           id="path3217"
           inkscape:connector-curvature="0" />
        <path
           style="font-size:40px;font-style:normal;font-variant:normal;font-weight:normal;font-stretch:normal;line-height:125%;letter-spacing:0px;word-spacing:0px;fill:#000000;fill-opacity:1;stroke:none;font-family:Armalite Rifle;-inkscape-font-specification:Armalite Rifle"
           d="m 268.0625,377 c -4.78117,1.37901 -7.48763,8.80142 -2.65625,11.75 -0.12683,5.46943 1.56171,11.55917 -2.03125,16.0625 -0.92747,5.63325 5.68557,8.59159 10.4375,7.75 4.55172,1.44654 10.7042,-1.41326 9.46875,-6.875 -0.3245,-2.2696 -2.58163,-5.32319 1.25,-4.5 4.50621,-0.5035 5.54752,-6.10205 4.9375,-9.21875 5.00959,-1.59844 4.41478,-7.70836 2.96875,-11.5625 -4.55522,-5.71708 -13.12817,-1.73302 -19.34375,-3.0625 -1.65196,0.0448 -3.51011,-0.8649 -5.03125,-0.34375 z m 13.65625,11.8125 c 0.34265,0.32211 -0.40013,0.0331 0,0 z"
           id="path3219"
           inkscape:connector-curvature="0" />
        <path
           style="font-size:40px;font-style:normal;font-variant:normal;font-weight:normal;font-stretch:normal;line-height:125%;letter-spacing:0px;word-spacing:0px;fill:#000000;fill-opacity:1;stroke:none;font-family:Armalite Rifle;-inkscape-font-specification:Armalite Rifle"
           d="m 290.46875,376.5 c -3.58177,1.82158 -4.91966,7.14121 -2.4375,10.4375 -0.76904,5.30827 1.05642,11.53376 -0.6875,16.28125 -2.93129,4.86019 2.91005,11.10896 8.1875,9.15625 6.06241,-0.32722 12.5226,-0.0337 18.15625,-1.34375 3.90516,-3.59086 3.34201,-11.40159 -0.53125,-14.5625 -3.06048,-1.57454 1.63182,-5.81223 2.28125,-8.21875 1.9847,-4.83563 -0.5682,-12.94416 -7,-11.40625 -5.97904,0.12873 -12.04285,-0.12881 -17.96875,-0.34375 z"
           id="path3221"
           inkscape:connector-curvature="0" />
        <path
           style="font-size:40px;font-style:normal;font-variant:normal;font-weight:normal;font-stretch:normal;line-height:125%;letter-spacing:0px;word-spacing:0px;fill:#000000;fill-opacity:1;stroke:none;font-family:Armalite Rifle;-inkscape-font-specification:Armalite Rifle"
           d="m 317.375,376.78125 c -5.72274,-0.85628 -10.94736,7.1881 -5.5625,10.9375 1.80337,2.95298 -0.14177,7.72654 -0.0937,10.96875 -4.62187,0.99029 -2.21528,7.34541 -1.25,10.40625 3.48162,4.93438 10.42511,2.88915 15.4375,2.5625 2.01354,-1.06488 4.40482,1.64644 6.90625,0.46875 3.85866,-0.28593 9.47757,0.15844 9.9375,-5.03125 0.87113,-3.46716 -2.07657,-5.78383 -3.96875,-7.8125 0.47394,-2.98739 3.54093,-5.60262 3,-9.15625 0.87062,-7.3057 -5.4981,-14.27281 -13,-12.84375 -3.76474,-0.50241 -7.55436,-0.59641 -11.40625,-0.5 z"
           id="path3223"
           inkscape:connector-curvature="0" />
        <path
           style="font-size:40px;font-style:normal;font-variant:normal;font-weight:normal;font-stretch:normal;line-height:125%;letter-spacing:0px;word-spacing:0px;fill:#000000;fill-opacity:1;stroke:none;font-family:Armalite Rifle;-inkscape-font-specification:Armalite Rifle"
           d="m 349.8125,376.8125 c -5.57227,-1.02768 -14.66141,0.43699 -13.5625,8 0.61127,2.45221 4.01048,2.96758 2.8125,5.875 -0.0127,2.82989 0.24134,6.9491 -1.34375,8.875 -3.74881,2.29332 -1.62769,8.41912 0.6875,11.09375 6.13874,3.60911 13.50577,-0.15645 19.93418,1.33136 4.72035,1.07289 12.25445,-0.66615 11.03457,-6.92511 0.59028,-3.49775 -5.32785,-4.30331 -3.5625,-7.5 5.93388,-6.89889 1.61729,-21.21236 -8.65625,-20.21875 -2.46806,0.14096 -4.90136,-0.61878 -7.34375,-0.53125 z"
           id="path3225"
           inkscape:connector-curvature="0" />
        <path
           style="font-size:40px;font-style:normal;font-variant:normal;font-weight:normal;font-stretch:normal;line-height:125%;letter-spacing:0px;word-spacing:0px;fill:#000000;fill-opacity:1;stroke:none;font-family:Armalite Rifle;-inkscape-font-specification:Armalite Rifle"
           d="m 368.03125,376.84375 c -7.04708,0.97773 -4.94783,9.55042 -2.59375,13.84375 -1.22593,3.41927 0.22537,7.41689 -0.96875,10.65625 -4.63351,3.7195 -0.2514,13.56992 6.0625,10.5625 5.59853,2.09406 15.09795,-0.79709 12.25,-8.21875 -0.99338,-1.93641 -3.97219,-2.83946 -2.40625,-5.40625 0.0774,-4.38795 -1.40895,-9.53547 2.21875,-12.8125 2.31273,-4.66873 -2.66906,-10.38331 -7.5625,-8.375 -2.33294,0.11902 -4.66515,-0.52561 -7,-0.25 z"
           id="path3227"
           inkscape:connector-curvature="0" />
        <path
           style="font-size:40px;font-style:normal;font-variant:normal;font-weight:normal;font-stretch:normal;line-height:125%;letter-spacing:0px;word-spacing:0px;fill:#000000;fill-opacity:1;stroke:none;font-family:Armalite Rifle;-inkscape-font-specification:Armalite Rifle"
           d="m 380.625,376.5 c -3.58177,1.82158 -4.91966,7.14121 -2.4375,10.4375 -0.76904,5.30827 1.05642,11.53376 -0.6875,16.28125 -2.93129,4.86019 2.91005,11.10896 8.1875,9.15625 6.06241,-0.32722 12.5226,-0.0337 18.15625,-1.34375 3.90516,-3.59086 3.34201,-11.40159 -0.53125,-14.5625 -3.06048,-1.57454 1.63182,-5.81223 2.28125,-8.21875 1.9847,-4.83563 -0.5682,-12.94416 -7,-11.40625 -5.97904,0.12873 -12.04285,-0.12881 -17.96875,-0.34375 z"
           id="path3229"
           inkscape:connector-curvature="0" />
        <path
           style="font-size:40px;font-style:normal;font-variant:normal;font-weight:normal;font-stretch:normal;line-height:125%;letter-spacing:0px;word-spacing:0px;fill:#000000;fill-opacity:1;stroke:none;font-family:Armalite Rifle;-inkscape-font-specification:Armalite Rifle"
           d="m 407.53125,376.78125 c -5.72274,-0.85628 -10.94736,7.1881 -5.5625,10.9375 1.80337,2.95298 -0.14177,7.72654 -0.0937,10.96875 -4.62187,0.99029 -2.21528,7.34541 -1.25,10.40625 3.48162,4.93438 10.42511,2.88915 15.4375,2.5625 2.01169,-1.13472 4.39334,1.69157 6.90625,0.46875 3.85861,-0.28684 9.47791,0.15869 9.9375,-5.03125 0.85246,-3.4481 -2.04851,-5.81 -3.96875,-7.8125 0.47394,-2.98739 3.54093,-5.60262 3,-9.15625 0.87062,-7.3057 -5.4981,-14.27281 -13,-12.84375 -3.76474,-0.50241 -7.55436,-0.59641 -11.40625,-0.5 z"
           id="path3231"
           inkscape:connector-curvature="0" />
        <path
           style="font-size:40px;font-style:normal;font-variant:normal;font-weight:normal;font-stretch:normal;line-height:125%;letter-spacing:0px;word-spacing:0px;fill:#000000;fill-opacity:1;stroke:none;font-family:Armalite Rifle;-inkscape-font-specification:Armalite Rifle"
           d="m 430.15625,376.5 c -3.58177,1.82158 -4.91966,7.14121 -2.4375,10.4375 -0.76904,5.30827 1.05642,11.53376 -0.6875,16.28125 -2.93129,4.86019 2.91005,11.10896 8.1875,9.15625 6.06241,-0.32722 12.5226,-0.0337 18.15625,-1.34375 3.90516,-3.59086 3.34201,-11.40159 -0.53125,-14.5625 -3.06048,-1.57454 1.63182,-5.81223 2.28125,-8.21875 1.9847,-4.83563 -0.5682,-12.94416 -7,-11.40625 -5.97904,0.12873 -12.04285,-0.12881 -17.96875,-0.34375 z"
           id="path3233"
           inkscape:connector-curvature="0" />
        <text
           xml:space="preserve"
           style="font-size:40px;font-style:normal;font-variant:normal;font-weight:normal;font-stretch:normal;line-height:125%;letter-spacing:0px;word-spacing:0px;fill:#ffffff;fill-opacity:1;stroke:none;font-family:Armalite Rifle;-inkscape-font-specification:Armalite Rifle"
           x="78.712219"
           y="408.0314"
           id="text3001"
           sodipodi:linespacing="125%"><tspan
             sodipodi:role="line"
             id="tspan3003"
             x="78.712219"
             y="408.0314">Alexis Laferriere</tspan></text>
      </g>
      <g
         transform="translate(0.21865136,-52.52793)"
         id="g3468">
        <path
           style="font-size:40px;font-style:normal;font-variant:normal;font-weight:normal;font-stretch:normal;line-height:125%;letter-spacing:0px;word-spacing:0px;fill:#000000;fill-opacity:1;stroke:none;font-family:Armalite Rifle;-inkscape-font-specification:Armalite Rifle"
           d="m 115.0625,454.78125 c -5.43759,0.17613 -8.72258,6.94264 -4.875,11.03125 1.02897,4.21447 0.10826,8.97308 0.40625,13.125 -4.20045,3.75807 -1.91085,12.73168 4.4375,11.875 2.8662,-0.55808 5.35259,-0.39633 7.9375,0.5625 2.07784,-1.50597 4.0566,-1.5956 6.625,-1.15625 4.45255,0.65064 9.22056,-2.59439 8.4375,-7.40625 1.79299,-4.89552 -1.14542,-11.8457 -7.15625,-10.78125 -3.48473,-0.36257 -2.93872,4.43193 -4.5625,5.59375 1.10958,-4.26599 -1.13446,-9.58938 1.375,-13.3125 3.85962,-3.10309 0.70164,-10.00644 -4.375,-9.34375 -2.80186,0.17936 -5.48393,-0.0644 -8.25,-0.1875 z"
           id="path3236"
           inkscape:connector-curvature="0" />
        <path
           style="font-size:40px;font-style:normal;font-variant:normal;font-weight:normal;font-stretch:normal;line-height:125%;letter-spacing:0px;word-spacing:0px;fill:#000000;fill-opacity:1;stroke:none;font-family:Armalite Rifle;-inkscape-font-specification:Armalite Rifle"
           d="m 147.96875,455.4375 c -2.9629,-0.53037 -6.03175,0.72027 -9.1875,-0.0937 -4.92894,-0.90142 -8.82057,4.80532 -5.78125,8.96875 2.49782,7.64415 -2.39858,18.33344 5.46875,23.84375 4.58306,3.0656 10.17395,2.00288 15.25,2.03125 2.79063,-0.91301 5.89152,-3.26012 7.50402,-4.87279 0.12606,-5.32866 1.61883,-9.99461 0.80848,-15.34596 -0.69327,-3.34298 4.19478,-4.63815 3.03125,-8.4375 -0.44146,-6.45651 -8.20517,-6.17588 -12.90625,-5.71875 -1.33205,0.10784 -5.21938,-2.87325 -4.1875,-0.375 z m 2.6875,11.25 c 0.78354,3.79706 -0.97824,8.68459 0.40625,11.78125 -2.82894,0.68301 -0.24361,-6.61367 -1.21875,-8.65625 0.31119,-0.88375 -0.70065,-3.41874 0.8125,-3.125 z"
           id="path3238"
           inkscape:connector-curvature="0" />
        <path
           style="font-size:40px;font-style:normal;font-variant:normal;font-weight:normal;font-stretch:normal;line-height:125%;letter-spacing:0px;word-spacing:0px;fill:#000000;fill-opacity:1;stroke:none;font-family:Armalite Rifle;-inkscape-font-specification:Armalite Rifle"
           d="m 167.09375,454.34375 c -0.36329,2.07766 -0.0211,3.45742 -2.5,4 -9.4437,7.6741 -7.38322,25.37832 3.90625,30.40625 6.79813,3.20469 17.09175,2.52364 20.25,-5.4375 1.3672,-3.45893 2.66149,-8.65111 -1.25,-10.90625 4.91718,-3.07917 2.95942,-10.39503 2.4375,-14.84375 -2.53493,-3.93153 -7.38876,-0.85723 -10.9375,-2.09375 -3.37308,-0.84623 -6.9245,0.35492 -9.65625,-2.21875 -1.00703,0.0797 -2.17114,-0.51539 -2.25,1.09375 z m 9.0625,11.59375 c 2.60428,1.02479 2.83795,5.11899 5.125,6.78125 -1.50859,1.24607 -2.13715,7.44994 -5.1875,6.09375 -0.53542,-4.03596 0.87668,-8.99347 -0.875,-12.5625 0.28493,-0.18975 0.59452,-0.27873 0.9375,-0.3125 z"
           id="path3240"
           inkscape:connector-curvature="0" />
        <path
           style="font-size:40px;font-style:normal;font-variant:normal;font-weight:normal;font-stretch:normal;line-height:125%;letter-spacing:0px;word-spacing:0px;fill:#000000;fill-opacity:1;stroke:none;font-family:Armalite Rifle;-inkscape-font-specification:Armalite Rifle"
           d="m 196,454.625 c -5.51594,-1.66577 -10.29905,5.20523 -6.625,9.625 3.0354,1.29314 -1.29713,3.7374 0.0937,6.125 -3.35433,2.53274 -2.17131,9.35897 -7.4375,9.625 -3.49758,4.9682 1.92326,11.30617 7.40625,10.21875 2.92448,0.78559 6.30143,-0.64633 8.59375,-1 4.452,2.4558 9.65108,0.0721 14.375,0.125 4.49747,-1.19133 6.21166,-10.07936 0.34375,-9.875 -1.16113,-5.70778 -3.21605,-11.3861 -5.5,-16.78125 -0.97713,-1.82915 0.37963,-5.07324 -2.5,-6.125 -2.42365,-2.01015 -5.75299,-2.1057 -8.75,-1.9375 z"
           id="path3242"
           inkscape:connector-curvature="0" />
        <path
           style="font-size:40px;font-style:normal;font-variant:normal;font-weight:normal;font-stretch:normal;line-height:125%;letter-spacing:0px;word-spacing:0px;fill:#000000;fill-opacity:1;stroke:none;font-family:Armalite Rifle;-inkscape-font-specification:Armalite Rifle"
           d="m 215.25,455.3125 c -2.65288,1.58824 -6.7397,2.42532 -6.78125,6.1875 -2.7422,4.29892 -0.2773,10.09717 1.09375,13.5625 -4.27598,2.08394 -2.82046,8.28623 -2,12.0625 1.06516,3.80298 5.36309,3.31689 8.1875,2.5 3.19833,0.52381 6.29213,0.0621 9.4375,0.78125 9.51084,-0.45422 15.33107,-13.54368 8.6875,-20.59375 3.64612,-3.63484 4.55957,-12.50682 -1.09375,-14.5625 -3.04763,-0.1849 -6.08496,0.29817 -8.84375,-0.0625 -2.89591,0.68768 -6.17093,-1.38553 -8.6875,0.125 z"
           id="path3244"
           inkscape:connector-curvature="0" />
        <path
           style="font-size:40px;font-style:normal;font-variant:normal;font-weight:normal;font-stretch:normal;line-height:125%;letter-spacing:0px;word-spacing:0px;fill:#000000;fill-opacity:1;stroke:none;font-family:Armalite Rifle;-inkscape-font-specification:Armalite Rifle"
           d="m 245.96875,454.8125 c -5.63807,0.24097 -5.75672,7.15273 -3.46875,10.8125 -0.47613,5.19592 1.12754,10.71981 -1.46875,15.53125 5.57079,0.21352 -0.39016,7.33811 4.5,8.75 5.08674,0.99795 10.13417,-1.38182 15.15625,-0.0312 3.53029,0.76973 6.72212,-1.27256 7.875,-4.40625 5.61427,-2.39822 3.47721,-9.59271 2.5,-13.875 4.53439,-7.50966 -2.71594,-18.49368 -11.5,-16.40625 -4.59825,0.76781 -8.96605,-0.58891 -13.59375,-0.375 z"
           id="path3246"
           inkscape:connector-curvature="0" />
        <path
           style="font-size:40px;font-style:normal;font-variant:normal;font-weight:normal;font-stretch:normal;line-height:125%;letter-spacing:0px;word-spacing:0px;fill:#000000;fill-opacity:1;stroke:none;font-family:Armalite Rifle;-inkscape-font-specification:Armalite Rifle"
           d="m 278.03125,454.625 c -5.51594,-1.66577 -10.29905,5.20523 -6.625,9.625 3.0354,1.29314 -1.29713,3.7374 0.0937,6.125 -3.35433,2.53274 -2.17131,9.35897 -7.4375,9.625 -3.49758,4.9682 1.92326,11.30617 7.40625,10.21875 2.92448,0.78559 6.30143,-0.64633 8.59375,-1 4.452,2.4558 9.65108,0.0721 14.375,0.125 4.49747,-1.19133 6.21166,-10.07936 0.34375,-9.875 -1.16113,-5.70778 -3.21605,-11.3861 -5.5,-16.78125 -0.97713,-1.82915 0.37963,-5.07324 -2.5,-6.125 -2.42365,-2.01015 -5.75299,-2.1057 -8.75,-1.9375 z"
           id="path3248"
           inkscape:connector-curvature="0" />
        <path
           style="font-size:40px;font-style:normal;font-variant:normal;font-weight:normal;font-stretch:normal;line-height:125%;letter-spacing:0px;word-spacing:0px;fill:#000000;fill-opacity:1;stroke:none;font-family:Armalite Rifle;-inkscape-font-specification:Armalite Rifle"
           d="m 312.71875,454.84375 c -4.77857,1.65122 -13.01601,-1.46118 -15.21875,5.0625 -1.50061,3.2527 1.24233,6.03213 2.6875,8.15625 -0.40203,1.88052 1.33658,9.48 -0.6875,6.125 -4.18331,-4.75648 -12.46638,0.30847 -10.5,6.28125 0.0125,6.67379 6.54922,10.3715 12.59375,10.375 7.31184,0.62872 15.83615,-5.02792 14.875,-13.09375 0.59947,-4.67777 -2.02636,-10.24998 1.875,-13.65625 2.1485,-4.34266 -1.42469,-8.77871 -5.625,-9.25 z"
           id="path3250"
           inkscape:connector-curvature="0" />
        <path
           style="font-size:40px;font-style:normal;font-variant:normal;font-weight:normal;font-stretch:normal;line-height:125%;letter-spacing:0px;word-spacing:0px;fill:#000000;fill-opacity:1;stroke:none;font-family:Armalite Rifle;-inkscape-font-specification:Armalite Rifle"
           d="m 333.09375,455.1875 c -2.41442,0.83552 -4.57634,2.14259 -7.09375,0.84375 -8.76557,-0.12731 -14.01941,9.93456 -13.53125,17.8125 0.3182,9.25796 8.45156,19.47827 18.375,17.25 8.47541,2.23323 15.63852,-6.83542 16.9375,-14.4375 1.33189,-7.38131 0.39761,-16.86326 -7.40625,-20.25 -2.9107,1.25998 -4.42597,-2.00667 -7.28125,-1.21875 z M 330.90625,466 c 2.05946,2.70956 -0.56292,7.32088 0.6875,10.65625 0.29236,1.45423 -0.72907,5.35141 -1.53125,1.84375 -0.91474,-3.91671 -0.47355,-9.3564 0.84375,-12.5 z"
           id="path3252"
           inkscape:connector-curvature="0" />
        <path
           style="font-size:40px;font-style:normal;font-variant:normal;font-weight:normal;font-stretch:normal;line-height:125%;letter-spacing:0px;word-spacing:0px;fill:#000000;fill-opacity:1;stroke:none;font-family:Armalite Rifle;-inkscape-font-specification:Armalite Rifle"
           d="m 352.21875,452.5625 c -1.45839,2.3837 -3.63947,1.96742 -6.03125,2.59375 -4.49988,1.47931 -5.75369,7.34112 -2.625,10.6875 0.35945,5.56812 1.34786,11.74208 -1.625,16.71875 -1.39581,5.08981 3.72927,9.92358 8.78125,8 4.79225,-1.25836 9.42772,-0.29994 14.21875,-0.75 5.65177,0.51779 7.02683,-5.98645 6.5,-10.375 2.25822,-6.00745 -6.44599,-9.93183 -10.34375,-5.65625 -1.89014,2.76341 -0.91934,-3.34349 -1.25,-4.375 -0.96575,-3.23934 1.21461,-5.4476 2.53125,-7.84375 1.24715,-4.32161 -3.55803,-7.03407 -6.84375,-7.09375 -0.075,-1.70097 -1.823,-2.78113 -3.3125,-1.90625 z"
           id="path3254"
           inkscape:connector-curvature="0" />
        <path
           style="font-size:40px;font-style:normal;font-variant:normal;font-weight:normal;font-stretch:normal;line-height:125%;letter-spacing:0px;word-spacing:0px;fill:#000000;fill-opacity:1;stroke:none;font-family:Armalite Rifle;-inkscape-font-specification:Armalite Rifle"
           d="m 369.15625,454.59375 c -3.721,1.59235 -5.09899,7.17499 -2.59375,10.53125 -0.65467,5.22934 0.81432,11.1986 -0.5,16 -3.38012,4.77965 2.63925,11.45317 8,9.40625 6.01142,-0.30853 12.54643,-0.0959 18.15625,-1.375 3.93088,-3.54852 3.24286,-11.09572 -0.3125,-14.46875 -2.0669,-0.13639 -0.20821,-3.44364 -0.46875,-4.1875 3.13972,-0.64077 2.79552,-6.28397 3,-9.40625 0.11376,-5.3347 -5.78547,-7.0984 -10.15625,-6.03125 -5.0387,-0.16175 -10.1397,-0.0674 -15.125,-0.46875 z"
           id="path3256"
           inkscape:connector-curvature="0" />
        <path
           style="font-size:40px;font-style:normal;font-variant:normal;font-weight:normal;font-stretch:normal;line-height:125%;letter-spacing:0px;word-spacing:0px;fill:#000000;fill-opacity:1;stroke:none;font-family:Armalite Rifle;-inkscape-font-specification:Armalite Rifle"
           d="m 403.78125,455.1875 c -4.65517,2.12024 -10.81059,-1.82483 -14.8125,2.375 -1.55849,3.18136 0.11724,6.88537 -0.8125,10.28125 -0.21061,4.43436 5.7232,5.43122 8.28125,4.40625 0.0198,2.06229 0.84058,4.99801 0.25,6.5625 -4.74567,-0.61274 -0.78815,5.38049 0.125,7.875 2.51747,4.58287 8.63837,4.30206 13.03125,3.625 5.28973,-0.83396 6.55982,-9.07043 2.4375,-11.8125 0.13296,-2.16429 -1.41598,-5.46389 1.71875,-5.21875 3.00136,-1.75181 6.09722,-4.07692 5.8125,-8.03125 0.33125,-4.17908 0.054,-10.75818 -5.9375,-9.46875 -3.35341,-0.30093 -6.7231,-0.7496 -10.09375,-0.59375 z"
           id="path3258"
           inkscape:connector-curvature="0" />
        <text
           xml:space="preserve"
           style="font-size:40px;font-style:normal;font-variant:normal;font-weight:normal;font-stretch:normal;line-height:125%;letter-spacing:0px;word-spacing:0px;fill:#ffffff;fill-opacity:1;stroke:none;font-family:Armalite Rifle;-inkscape-font-specification:Armalite Rifle"
           x="111.76886"
           y="486.1871"
           id="text3005"
           sodipodi:linespacing="125%"><tspan
             sodipodi:role="line"
             id="tspan3007"
             x="111.76886"
             y="486.1871">Lucas Bajolet</tspan></text>
      </g>
      <g
         transform="translate(0.22839539,-83.675089)"
         id="g3484">
        <path
           style="font-size:40px;font-style:normal;font-variant:normal;font-weight:normal;font-stretch:normal;line-height:125%;letter-spacing:0px;word-spacing:0px;fill:#000000;fill-opacity:1;stroke:none;font-family:Armalite Rifle;-inkscape-font-specification:Armalite Rifle"
           d="m 108.28125,533.78125 c -5.08255,0.25106 -13.344157,-1.16566 -14.65625,5.65625 -1.173477,2.55854 1.381305,4.66611 2.625,6.0625 -1.586659,4.81808 2.076788,11.50423 -3.03125,14.65625 -0.889629,2.66321 1.095148,5.32746 2,7.78125 2.910588,3.00706 6.1524,-1.6228 9.09375,0.875 3.94856,1.83067 7.39548,-1.84489 11.30712,-0.17764 4.69743,1.13231 12.16815,-0.73207 10.91163,-6.91611 0.36175,-3.3014 -4.12828,-4.02138 -3.9375,-6.78125 6.37902,-6.91224 2.43872,-21.80844 -8.1875,-20.9375 -2.04129,0.0274 -4.08109,-0.35459 -6.125,-0.21875 z"
           id="path3261"
           inkscape:connector-curvature="0" />
        <path
           style="font-size:40px;font-style:normal;font-variant:normal;font-weight:normal;font-stretch:normal;line-height:125%;letter-spacing:0px;word-spacing:0px;fill:#000000;fill-opacity:1;stroke:none;font-family:Armalite Rifle;-inkscape-font-specification:Armalite Rifle"
           d="m 141.15625,533.40625 c -2.33971,0.62391 -3.97277,2.78693 -6.5,1.25 -8.74683,-1.03482 -14.34129,8.52232 -14.5625,16.15625 -0.37025,9.65403 7.52431,20.90469 18.0625,18.90625 9.55203,2.22279 17.06584,-7.97642 17.53125,-16.59375 0.40767,-6.48013 0.17325,-13.74396 -6.0625,-17.28125 -2.92298,-1.13894 -5.35782,-2.61222 -8.46875,-2.4375 z M 138.5,544.625 c 2.08344,1.8106 -0.37767,6.47412 0.6875,9.28125 0.5633,1.54759 -0.40015,7.37724 -1.53125,2.9375 -0.80279,-3.96082 -0.34247,-8.78559 0.84375,-12.21875 z"
           id="path3263"
           inkscape:connector-curvature="0" />
        <path
           style="font-size:40px;font-style:normal;font-variant:normal;font-weight:normal;font-stretch:normal;line-height:125%;letter-spacing:0px;word-spacing:0px;fill:#000000;fill-opacity:1;stroke:none;font-family:Armalite Rifle;-inkscape-font-specification:Armalite Rifle"
           d="m 174.875,533.3125 c -3.14337,-0.31643 -6.05901,3.06854 -7.375,4.21875 -3.08255,-4.27161 -8.86093,-3.58574 -13.34375,-4.0625 -5.09389,1.7512 -4.95701,8.86173 -1.5625,11.9375 1.62398,2.4124 -1.43296,5.36718 -0.2488,8.43547 1.14572,3.09969 -0.7348,4.42086 -2.40745,6.43953 -2.56274,4.8366 2.65648,11.02209 7.75,8.5625 3.3411,0.65377 7.01839,-0.2561 9.09375,-2.75 1.86953,2.56649 5.28203,4.3905 8.625,3 4.19371,0.64994 9.69633,0.006 10.15625,-5.1875 0.71251,-4.0265 -2.76168,-7.19586 -1.71875,-11.375 -0.69767,-4.9097 1.28869,-9.35773 1.65625,-13.9375 -0.85673,-5.15594 -6.4972,-5.24228 -10.625,-5.28125 z m -4.65625,25.59375 -0.0312,0 0.0312,0 z"
           id="path3265"
           inkscape:connector-curvature="0" />
        <path
           style="font-size:40px;font-style:normal;font-variant:normal;font-weight:normal;font-stretch:normal;line-height:125%;letter-spacing:0px;word-spacing:0px;fill:#000000;fill-opacity:1;stroke:none;font-family:Armalite Rifle;-inkscape-font-specification:Armalite Rifle"
           d="m 191.375,533.21875 c -5.85656,-1.82293 -10.61916,5.97146 -6.1875,10.09375 2.04577,0.98438 -1.23798,3.56447 -0.5625,5.34375 -3.12575,2.61278 -1.12288,8.46868 -5.875,9.28125 -5.41634,3.18775 -0.77819,11.70119 4.875,10.875 3.12036,0.29021 6.61827,0.62036 9.28125,-1.40625 4.57762,3.23441 10.51834,0.30714 15.5,0.21875 4.36281,-1.80717 4.62511,-9.25014 -0.21875,-10.21875 -1.80901,-5.57213 -3.40804,-11.95462 -6.125,-16.71875 0.98114,-6.29736 -5.75099,-8.11045 -10.6875,-7.46875 z"
           id="path3267"
           inkscape:connector-curvature="0" />
        <path
           style="font-size:40px;font-style:normal;font-variant:normal;font-weight:normal;font-stretch:normal;line-height:125%;letter-spacing:0px;word-spacing:0px;fill:#000000;fill-opacity:1;stroke:none;font-family:Armalite Rifle;-inkscape-font-specification:Armalite Rifle"
           d="m 208.28125,533.53125 c -5.94214,-0.15352 -7.2648,7.54821 -3.9375,11.40625 1.48406,3.37122 -1.13591,6.99982 0.25,10.625 0.60388,3.05218 -3.47833,3.52996 -2.4375,6.84375 -0.477,4.35119 3.89375,7.88401 8.03125,6.1875 5.53846,2.08555 14.73127,-0.71476 12.25,-8.03125 -0.86157,-2.13903 -4.33401,-2.85213 -2.5625,-5.59375 0.0599,-4.47547 -1.13455,-9.52263 2.3125,-12.90625 2.28174,-5.05294 -3.18278,-10.26329 -8.1875,-8.21875 -1.91004,-0.0326 -3.80656,-0.43498 -5.71875,-0.3125 z"
           id="path3269"
           inkscape:connector-curvature="0" />
        <path
           style="font-size:40px;font-style:normal;font-variant:normal;font-weight:normal;font-stretch:normal;line-height:125%;letter-spacing:0px;word-spacing:0px;fill:#000000;fill-opacity:1;stroke:none;font-family:Armalite Rifle;-inkscape-font-specification:Armalite Rifle"
           d="m 225.5625,534.375 c -4.46949,-0.41659 -10.97959,3.06325 -8.375,8.34375 3.07911,2.01219 -0.17149,6.32692 0.97027,9.59321 0.68138,3.69471 -0.008,6.7972 -1.75152,9.84429 -0.86571,4.45738 3.75897,8.72017 8,6.6875 3.23672,0.69432 7.34133,0.4481 9.75,-1.15625 2.34068,2.83629 6.09751,1.1117 9.1875,1.1875 5.97839,-1.63635 4.66009,-9.24048 3.125,-13.40625 2.15708,-3.21884 0.70111,-7.95207 0.15625,-10.96875 4.75057,-2.19801 4.34355,-10.24856 -1.3125,-10.625 -4.14078,-0.60482 -8.64245,0.70671 -12.3125,0.90625 -1.7777,-1.50745 -3.96488,-0.0922 -5.75,-1.3125 -0.56809,0.2988 -1.8872,-0.61586 -1.6875,0.90625 z"
           id="path3271"
           inkscape:connector-curvature="0" />
        <path
           style="font-size:40px;font-style:normal;font-variant:normal;font-weight:normal;font-stretch:normal;line-height:125%;letter-spacing:0px;word-spacing:0px;fill:#000000;fill-opacity:1;stroke:none;font-family:Armalite Rifle;-inkscape-font-specification:Armalite Rifle"
           d="m 280.0625,532.9375 c -3.09969,0.98432 -6.40031,-0.34194 -9.59375,0.8125 -4.31626,-0.79557 -8.40177,0.62446 -11.28125,3.71875 -8.66534,8.05693 -6.68524,25.22925 4.6875,30 7.36217,3.73076 18.57895,1.63185 20.75,-7.375 1.53503,-3.29731 -0.27633,-7.80376 -2.5,-9.34375 5.19131,-3.16434 4.02102,-10.37627 2.71875,-15.28125 -0.79063,-1.82333 -2.83449,-2.85017 -4.78125,-2.53125 z m -7.84375,11.34375 c 2.14295,1.75525 3.40413,5.97661 3.84375,7.84375 -1.05829,1.35175 -2.76573,7.41033 -4.9375,5.0625 0.47384,-4.07075 -0.96539,-9.25199 1.03125,-12.875 l 0.0312,-0.0312 0.0312,0 z"
           id="path3273"
           inkscape:connector-curvature="0" />
        <path
           style="font-size:40px;font-style:normal;font-variant:normal;font-weight:normal;font-stretch:normal;line-height:125%;letter-spacing:0px;word-spacing:0px;fill:#000000;fill-opacity:1;stroke:none;font-family:Armalite Rifle;-inkscape-font-specification:Armalite Rifle"
           d="m 301.125,533.25 c -1.56215,-0.31827 -3.73863,2.46191 -4.1875,0.1875 -5.25151,2.33498 -14.10681,-2.28474 -16.78125,4.375 -1.01887,2.65987 -0.62395,5.9869 1.21875,8 -0.19525,5.65947 0.94981,11.71795 -2.125,16.71875 -0.69913,3.33179 1.68309,8.42597 5.71875,6.90625 4.32237,1.36797 9.00612,-0.49188 12.9375,-1 4.79744,1.34968 10.66007,1.02899 15.09375,-0.75 3.09979,-2.654 1.83051,-7.12465 0,-9.90625 -2.03846,-3.79592 0.76225,-7.63014 -0.25,-11.71875 1.03941,-2.42078 3.06718,-5.32864 1.6875,-8.40625 -0.64727,-3.6894 -4.45885,-4.25636 -7.34375,-3.65625 -2.00989,-0.42414 -3.95941,-0.5611 -5.96875,-0.75 z m -3.65625,22.53125 -0.1875,-0.0312 0.1875,0.0312 z m 0.21875,0.0625 c -0.43161,0.065 0.0566,-1.14176 0,0 z m 0.375,-0.125 c -0.43482,0.38246 -0.0641,-0.68046 0,0 z m 0.21875,0.28125 -0.125,-0.0312 0.125,0.0312 z m -0.0625,0.25 -0.3125,-0.125 0.3125,0.125 z m -0.15625,0.9375 0.125,-0.34375 -0.125,0.34375 z m -0.125,0.34375 0.0937,-0.3125 -0.0937,0.3125 z M 297.78125,558 c 1.74629,0.62553 -0.0413,-0.48749 0,0 z m -1.40625,0.0625 c -0.2032,0.54448 0.61063,1.6116 0.0625,1.1875 0.5473,2.21094 1.23799,-2.50741 1.125,-0.59375 0.10459,-0.0105 1.22788,-0.61782 -0.81147,-0.61084 l -0.37603,0.0171 z"
           id="path3275"
           inkscape:connector-curvature="0" />
        <path
           style="font-size:40px;font-style:normal;font-variant:normal;font-weight:normal;font-stretch:normal;line-height:125%;letter-spacing:0px;word-spacing:0px;fill:#000000;fill-opacity:1;stroke:none;font-family:Armalite Rifle;-inkscape-font-specification:Armalite Rifle"
           d="m 320.4375,533.21875 c -5.85656,-1.82293 -10.61916,5.97146 -6.1875,10.09375 2.04577,0.98438 -1.23798,3.56447 -0.5625,5.34375 -3.12575,2.61278 -1.12288,8.46868 -5.875,9.28125 -5.41634,3.18775 -0.77819,11.70119 4.875,10.875 3.12036,0.29021 6.61827,0.62036 9.28125,-1.40625 4.57762,3.23441 10.51834,0.30714 15.5,0.21875 4.36281,-1.80717 4.62511,-9.25014 -0.21875,-10.21875 -1.80901,-5.57213 -3.40804,-11.95462 -6.125,-16.71875 0.98114,-6.29736 -5.75099,-8.11045 -10.6875,-7.46875 z"
           id="path3277"
           inkscape:connector-curvature="0" />
        <path
           style="font-size:40px;font-style:normal;font-variant:normal;font-weight:normal;font-stretch:normal;line-height:125%;letter-spacing:0px;word-spacing:0px;fill:#000000;fill-opacity:1;stroke:none;font-family:Armalite Rifle;-inkscape-font-specification:Armalite Rifle"
           d="m 354.46875,533.75 c -3.2745,0.25762 -5.83705,2.3324 -8.875,0.46875 -4.91758,-0.0876 -13.57908,-0.23258 -13.90625,6.34375 0.12436,2.89784 3.16442,3.59124 1.59375,6.65625 -0.48827,5.0305 1.27395,10.45606 -1.75,14.6875 -1.05169,4.50486 3.64483,8.90318 7.96875,6.9375 3.18457,0.59964 7.28048,0.61584 9.65625,-1.21875 2.3734,2.89815 6.13977,1.17407 9.25,1.25 5.64408,-1.59099 5.26913,-9.03111 2.90625,-13.0625 2.38392,-3.17037 1.07364,-8.18585 0.375,-11.21875 4.67521,-2.1518 4.56119,-10.72794 -1.25,-10.8125 -1.86216,0.66881 -3.96745,-0.43148 -5.96875,-0.0312 z"
           id="path3279"
           inkscape:connector-curvature="0" />
        <path
           style="font-size:40px;font-style:normal;font-variant:normal;font-weight:normal;font-stretch:normal;line-height:125%;letter-spacing:0px;word-spacing:0px;fill:#000000;fill-opacity:1;stroke:none;font-family:Armalite Rifle;-inkscape-font-specification:Armalite Rifle"
           d="m 381.5,533.78125 c -3.30957,-0.99746 -6.06059,3.01745 -9.28125,0.84375 -8.19977,-0.28247 -13.38765,8.83257 -13.59375,16.15625 -0.41611,9.65751 7.48806,20.90682 18.03125,18.9375 9.72686,2.24997 17.2359,-8.19636 17.625,-16.9375 0.84894,-6.95224 -1.29852,-16.96936 -9.59375,-17.875 -0.71736,-0.9183 -1.89163,-2.06204 -3.1875,-1.125 z M 377,544.625 c 2.25298,2.44345 -0.61155,7.15943 0.90625,10.3125 0.52908,1.49026 -1.17621,5.75239 -1.6875,2.03125 C 375.46451,552.93457 375.69611,548.224 377,544.625 z"
           id="path3281"
           inkscape:connector-curvature="0" />
        <path
           style="font-size:40px;font-style:normal;font-variant:normal;font-weight:normal;font-stretch:normal;line-height:125%;letter-spacing:0px;word-spacing:0px;fill:#000000;fill-opacity:1;stroke:none;font-family:Armalite Rifle;-inkscape-font-specification:Armalite Rifle"
           d="m 393.90625,533.53125 c -5.94214,-0.15352 -7.2648,7.54821 -3.9375,11.40625 1.48406,3.37122 -1.13591,6.99982 0.25,10.625 0.60388,3.05218 -3.47833,3.52996 -2.4375,6.84375 -0.477,4.35119 3.89375,7.88401 8.03125,6.1875 5.53846,2.08555 14.73127,-0.71476 12.25,-8.03125 -0.86157,-2.13903 -4.33401,-2.85213 -2.5625,-5.59375 0.0599,-4.47547 -1.13455,-9.52263 2.3125,-12.90625 2.28174,-5.05294 -3.18278,-10.26329 -8.1875,-8.21875 -1.91004,-0.0326 -3.80656,-0.43498 -5.71875,-0.3125 z"
           id="path3283"
           inkscape:connector-curvature="0" />
        <path
           style="font-size:40px;font-style:normal;font-variant:normal;font-weight:normal;font-stretch:normal;line-height:125%;letter-spacing:0px;word-spacing:0px;fill:#000000;fill-opacity:1;stroke:none;font-family:Armalite Rifle;-inkscape-font-specification:Armalite Rifle"
           d="m 410.46875,533.5 c -5.25535,-0.84411 -11.09509,5.29015 -7.25,10 3.87264,2.8174 0.2185,8.39212 1.15625,12.5 -4.32672,1.38764 -2.97194,8.22954 -0.4375,11.0625 5.54239,4.29352 13.09397,0.0171 19.125,1.59375 6.19216,2.18515 15.50289,-2.19961 11.1875,-9.4375 -1.39713,-1.83013 -4.85865,-3.36856 -1.96875,-5.84375 4.95056,-7.1369 0.51204,-20.1898 -9.28125,-19.28125 -4.19635,-0.27135 -8.30884,-0.86882 -12.53125,-0.59375 z"
           id="path3285"
           inkscape:connector-curvature="0" />
        <text
           xml:space="preserve"
           style="font-size:40px;font-style:normal;font-variant:normal;font-weight:normal;font-stretch:normal;line-height:125%;letter-spacing:0px;word-spacing:0px;fill:#ffffff;fill-opacity:1;stroke:none;font-family:Armalite Rifle;-inkscape-font-specification:Armalite Rifle"
           x="96.45636"
           y="564.7627"
           id="text3009"
           sodipodi:linespacing="125%"><tspan
             sodipodi:role="line"
             id="tspan3011"
             x="96.45636"
             y="564.7627">Romain Chanoir</tspan></text>
      </g>
      <g
         transform="translate(0.29933273,-65.091651)"
         id="g3501">
        <path
           style="font-size:40px;font-style:normal;font-variant:normal;font-weight:normal;font-stretch:normal;line-height:125%;letter-spacing:0px;word-spacing:0px;fill:#000000;fill-opacity:1;stroke:none;font-family:Armalite Rifle;-inkscape-font-specification:Armalite Rifle"
           d="m 85.8125,611.15625 c -2.993552,0.83559 -2.462473,4.66495 -3.3125,7.09375 -0.578935,4.199 5.210514,5.29234 4.0625,9.4375 -2.180087,1.93994 -2.018067,5.10869 -1.625,7.65625 -3.797488,2.45377 -4.681997,8.57901 -0.59375,11.25 2.926194,1.2981 6.294585,0.42201 9.4375,0.28125 2.114616,0.0881 4.370856,-1.82052 5.75,-1.875 2.40422,4.54145 7.89549,1.51033 11.84375,2.3125 4.08742,-0.0672 6.65417,-3.63961 7.5,-7.3125 -2.25267,0.27348 -2.94221,-3.81382 -3.40625,-5.5625 1.69644,-3.64381 -1.45946,-7.20852 0.62291,-10.79516 1.27707,-3.30712 3.14264,-7.70437 -0.24791,-10.54859 -2.81785,-1.83926 -6.50803,-1.3624 -9.75,-1.4375 -2.73785,-0.15847 -5.38355,3.32864 -6.21875,4.03125 -1.345978,-3.31948 -6.284799,-3.68512 -8.570269,-3.78498 -1.361666,1.15811 -3.758094,-1.29635 -5.492231,-0.74627 z"
           id="path3288"
           inkscape:connector-curvature="0" />
        <path
           style="font-size:40px;font-style:normal;font-variant:normal;font-weight:normal;font-stretch:normal;line-height:125%;letter-spacing:0px;word-spacing:0px;fill:#000000;fill-opacity:1;stroke:none;font-family:Armalite Rifle;-inkscape-font-specification:Armalite Rifle"
           d="m 114.8125,611.75 c -3.81848,2.12879 -4.39498,7.58715 -2.0625,11.125 -1.08367,5.73621 1.37465,12.26105 -1.5625,17.375 -0.65528,4.77419 4.27315,8.84228 8.90625,7.34375 6.09912,-0.20443 12.59246,-0.19987 18.21875,-1.34375 3.8086,-3.63697 3.25813,-11.27351 -0.5,-14.5625 -2.05727,-0.0511 -0.0709,-3.53851 -0.25,-4.25 3.79594,0.0609 2.2963,-5.91653 2.9375,-9.03125 0.27164,-5.05379 -5.13577,-7.45872 -9.53125,-6.28125 -5.38618,-0.32545 -10.86155,0.10584 -16.15625,-0.375 z"
           id="path3290"
           inkscape:connector-curvature="0" />
        <path
           style="font-size:40px;font-style:normal;font-variant:normal;font-weight:normal;font-stretch:normal;line-height:125%;letter-spacing:0px;word-spacing:0px;fill:#000000;fill-opacity:1;stroke:none;font-family:Armalite Rifle;-inkscape-font-specification:Armalite Rifle"
           d="m 158.46875,611.90625 c -3.64024,-0.27932 -6.75535,1.8646 -10.3125,0.59375 -4.23389,0.91193 -10.79014,-1.91848 -12.84375,3.25 -1.7489,3.07508 -0.0544,6.53283 0.96875,9.1875 -0.10229,5.30391 1.02995,11.08687 -1.96875,15.71875 -1.01859,3.40112 1.45922,8.7967 5.59375,7.28125 4.3953,1.37722 9.0903,-0.60496 13.09375,-0.96875 4.72901,1.24949 10.61249,0.92171 14.84375,-0.71875 3.46255,-2.74423 1.58297,-7.37522 0,-10.375 -1.75682,-3.5011 0.92579,-6.83456 -0.21875,-10.53125 -0.31346,-2.11717 2.48249,-2.5323 2.0625,-5.0625 1.1202,-4.67883 -3.37469,-9.98474 -8.15625,-7.8125 -1.01452,-0.23921 -1.98923,-0.74885 -3.0625,-0.5625 z"
           id="path3292"
           inkscape:connector-curvature="0" />
        <path
           style="font-size:40px;font-style:normal;font-variant:normal;font-weight:normal;font-stretch:normal;line-height:125%;letter-spacing:0px;word-spacing:0px;fill:#000000;fill-opacity:1;stroke:none;font-family:Armalite Rifle;-inkscape-font-specification:Armalite Rifle"
           d="m 166.5625,612.78125 c -2.6503,2.54197 -4.81083,7.73092 -1.21875,10.375 0.13962,6.89794 0.13838,13.75715 -1.375,20.4375 -1.84223,6.21031 6.11167,3.46149 9.84091,3.70599 5.29544,-0.33113 11.0577,1.71471 15.72159,-2.01849 4.88234,-2.2885 7.07552,-7.52959 7.125,-12.59375 1.28479,-2.66633 -1.90191,-5.1489 0.28125,-7.6875 -0.11392,-8.9038 -10.76135,-13.98283 -18.5,-12.1875 -3.41182,-1.75064 -7.54354,0.83864 -10.9375,-1.1875 l -0.6298,0.77676 -0.3077,0.37949 z"
           id="path3294"
           inkscape:connector-curvature="0" />
        <path
           style="font-size:40px;font-style:normal;font-variant:normal;font-weight:normal;font-stretch:normal;line-height:125%;letter-spacing:0px;word-spacing:0px;fill:#000000;fill-opacity:1;stroke:none;font-family:Armalite Rifle;-inkscape-font-specification:Armalite Rifle"
           d="m 195.5625,612.0625 c -7.11337,1.00909 -4.85036,9.53179 -2.5625,13.875 -1.27166,3.43873 0.27391,7.44643 -0.96875,10.6875 -4.59336,3.4999 -0.46046,13.16762 5.6875,10.46875 4.70496,0.93273 12.77292,1.15882 13.03125,-5.40625 1.38881,-3.78957 -4.92584,-4.7218 -2.84375,-8.21875 0.12816,-4.29708 -1.32797,-9.39377 2.15625,-12.625 2.48147,-4.68511 -2.55733,-10.58039 -7.5,-8.53125 -2.33294,0.11902 -4.66515,-0.52561 -7,-0.25 z"
           id="path3296"
           inkscape:connector-curvature="0" />
        <path
           style="font-size:40px;font-style:normal;font-variant:normal;font-weight:normal;font-stretch:normal;line-height:125%;letter-spacing:0px;word-spacing:0px;fill:#000000;fill-opacity:1;stroke:none;font-family:Armalite Rifle;-inkscape-font-specification:Armalite Rifle"
           d="m 227.375,611.65625 c -5.43179,-1.74545 -10.78157,4.45071 -7.46875,9.28125 3.31197,1.55826 -0.82564,3.78295 0.3125,6.4375 -2.9234,1.84073 -2.06431,7.05351 -4.75,8.625 -4.66512,-0.74042 -4.75246,7.66496 -1.125,9.8125 4.40778,2.39196 10.21679,1.72383 14.53125,0.59375 4.81402,1.99285 10.32045,0.20642 15.21875,-0.4375 3.87135,-1.75154 4.62031,-9.0877 -0.34375,-9.78125 -2.39969,-5.54439 -2.91806,-12.64604 -6.375,-17.34375 1.8101,-5.32036 -5.80319,-7.85868 -10,-7.1875 z"
           id="path3298"
           inkscape:connector-curvature="0" />
        <path
           style="font-size:40px;font-style:normal;font-variant:normal;font-weight:normal;font-stretch:normal;line-height:125%;letter-spacing:0px;word-spacing:0px;fill:#000000;fill-opacity:1;stroke:none;font-family:Armalite Rifle;-inkscape-font-specification:Armalite Rifle"
           d="m 243,612.0625 c -7.02404,0.96958 -4.97559,9.53136 -2.59375,13.8125 -1.16094,3.39223 0.0922,7.37752 -0.84375,10.59375 -4.74266,3.47836 -0.59125,13.61357 5.71875,10.65625 5.64169,2.07245 15.29501,-0.67321 12.5,-8.21875 -1.00909,-1.97802 -4.07052,-2.84087 -2.4375,-5.46875 0.11188,-4.37238 -1.40923,-9.47271 2.21875,-12.71875 2.32182,-4.60949 -2.62973,-10.45137 -7.5625,-8.40625 -2.33294,0.11902 -4.66515,-0.52561 -7,-0.25 z"
           id="path3300"
           inkscape:connector-curvature="0" />
        <path
           style="font-size:40px;font-style:normal;font-variant:normal;font-weight:normal;font-stretch:normal;line-height:125%;letter-spacing:0px;word-spacing:0px;fill:#000000;fill-opacity:1;stroke:none;font-family:Armalite Rifle;-inkscape-font-specification:Armalite Rifle"
           d="m 267.84375,612.21875 c -4.86246,2.23126 -11.51459,-2.00825 -15.375,2.71875 -0.99964,3.34499 0.0515,6.78742 -0.625,10.25 0.0574,4.18739 5.85135,5.28884 8.3125,4.125 0.0115,2.06286 0.7728,4.97408 0.21875,6.53125 -4.9449,-0.76955 -0.79515,5.40652 0.1875,8 2.72185,4.65215 9.24156,4.30519 13.71875,3.21875 4.64843,-1.4972 5.6497,-8.89857 1.71875,-11.5 -0.0422,-2.43746 -1.24385,-5.50067 2,-5.40625 3.28289,-1.73874 5.87471,-4.66238 5.65625,-8.6875 0.64454,-4.05303 -0.99301,-9.83646 -6.34375,-8.65625 -3.15158,-0.22323 -6.30465,-0.67375 -9.46875,-0.59375 z"
           id="path3302"
           inkscape:connector-curvature="0" />
        <path
           style="font-size:40px;font-style:normal;font-variant:normal;font-weight:normal;font-stretch:normal;line-height:125%;letter-spacing:0px;word-spacing:0px;fill:#000000;fill-opacity:1;stroke:none;font-family:Armalite Rifle;-inkscape-font-specification:Armalite Rifle"
           d="m 291.65625,612.0625 c -5.89861,-0.5322 -9.45359,9.308 -2.96875,11.0625 3.71661,1.13847 4.38526,6.26972 5.78125,9.375 1.97526,3.76454 -3.34861,4.73466 -2.5625,8.46875 0.2255,4.31781 4.71001,7.38536 8.8125,6.0625 3.18375,0.59725 7.62477,1.0262 9.03125,-2.71875 2.8359,-2.26556 2.38402,-6.15955 0.90625,-8.78125 -0.61775,-3.3166 -1.52686,-6.76426 2.0625,-8.34375 1.12041,-1.98664 1.83213,-5.93885 5,-3.125 2.06661,-4.43022 0.6696,-13.30342 -5.84375,-11.78125 -2.82176,1.03353 -6.89428,-1.60701 -8.75,2.28125 -1.03984,0.58206 -2.74816,-3.2214 -5.03125,-2.3125 -2.10761,0.56851 -4.22732,-0.5739 -6.4375,-0.1875 z"
           id="path3304"
           inkscape:connector-curvature="0" />
        <path
           style="font-size:40px;font-style:normal;font-variant:normal;font-weight:normal;font-stretch:normal;line-height:125%;letter-spacing:0px;word-spacing:0px;fill:#000000;fill-opacity:1;stroke:none;font-family:Armalite Rifle;-inkscape-font-specification:Armalite Rifle"
           d="m 333.5625,612.4375 c -3.43394,-1.21726 -6.29233,2.67394 -9.65625,0.65625 -8.53006,-0.0994 -13.64907,9.63469 -13.46875,17.28125 0.10821,9.44291 8.2325,19.98273 18.40625,17.8125 8.42932,2.16773 15.65785,-6.84124 16.9375,-14.46875 1.34484,-7.36375 0.4763,-16.83394 -7.375,-20.25 -1.98479,-1.14621 -2.88738,-0.77068 -4.84375,-1.03125 z m -4.9375,10.65625 c 2.69333,1.44133 -0.39725,6.32983 0.96875,8.96875 0.1469,1.29761 0.42443,4.93359 -1.125,4.8125 -1.5427,-4.43541 -0.68806,-9.35481 0.15625,-13.78125 z"
           id="path3306"
           inkscape:connector-curvature="0" />
        <path
           style="font-size:40px;font-style:normal;font-variant:normal;font-weight:normal;font-stretch:normal;line-height:125%;letter-spacing:0px;word-spacing:0px;fill:#000000;fill-opacity:1;stroke:none;font-family:Armalite Rifle;-inkscape-font-specification:Armalite Rifle"
           d="m 354.4375,612.34375 c -4.63698,1.22052 -12.49869,-2.30102 -14.34375,4.1875 0.069,4.96956 2.87011,9.92373 1.59375,15.1875 -1.15728,6.57397 2.19226,14.44355 9.40625,15.375 3.55641,0.67192 7.19545,0.0549 10.75,0.125 2.65035,-1.03428 5.44729,-3.28425 7.05041,-4.80611 0.76469,-5.40181 1.85768,-10.79266 0.91834,-16.35014 0.12014,-2.58474 4.04061,-3.59313 3.21875,-6.8125 0.0361,-4.58992 -4.54709,-7.46517 -8.78125,-6.53125 -3.55404,0.0677 -6.58223,0.9294 -9.8125,-0.375 z m 4.15625,11.34375 c 0.78281,3.82651 -1.10204,8.91913 0.34375,11.84375 -2.48075,0.24566 -0.31459,-5.95013 -1.17585,-8.06231 0.33144,-1.03648 -0.83767,-3.9349 0.8321,-3.78144 z"
           id="path3308"
           inkscape:connector-curvature="0" />
        <path
           style="font-size:40px;font-style:normal;font-variant:normal;font-weight:normal;font-stretch:normal;line-height:125%;letter-spacing:0px;word-spacing:0px;fill:#000000;fill-opacity:1;stroke:none;font-family:Armalite Rifle;-inkscape-font-specification:Armalite Rifle"
           d="m 375.90625,612.90625 c -4.53478,-0.46421 -11.0627,3.12913 -8.34375,8.40625 2.78235,2.42494 -0.20095,6.84912 1,10.25 0.8898,3.60124 -0.48838,6.21946 -1.8125,9.21875 -0.75687,4.3922 3.79643,8.56413 8,6.5625 3.23672,0.69432 7.34133,0.4481 9.75,-1.15625 2.34068,2.83629 6.09751,1.1117 9.1875,1.1875 5.98424,-1.62955 4.61557,-9.19908 3.15625,-13.375 2.05549,-3.21955 0.76323,-7.92308 0.0937,-10.90625 5.03124,-2.3058 4.21415,-10.76922 -1.71875,-10.78125 -3.9145,-0.34052 -8.2315,0.46426 -11.625,1.15625 -1.78904,-1.75159 -4.15177,-0.24284 -6,-1.5 -0.65572,0.29502 -1.83526,-0.6232 -1.6875,0.9375 z"
           id="path3310"
           inkscape:connector-curvature="0" />
        <path
           style="font-size:40px;font-style:normal;font-variant:normal;font-weight:normal;font-stretch:normal;line-height:125%;letter-spacing:0px;word-spacing:0px;fill:#000000;fill-opacity:1;stroke:none;font-family:Armalite Rifle;-inkscape-font-specification:Armalite Rifle"
           d="m 396,612.84375 c -2.20332,2.59625 -2.94652,6.41894 -0.8125,9.3125 -0.57613,5.20693 0.66378,11.08875 -0.40625,15.90625 -3.53984,4.77941 2.46779,11.58369 7.90625,9.53125 6.05984,-0.3097 12.52309,-0.0407 18.15625,-1.34375 3.90516,-3.59086 3.34201,-11.40159 -0.53125,-14.5625 -1.81248,-0.29289 -0.80524,-4.25377 0.71875,-5.28125 3.32673,-3.62689 3.34622,-14.01751 -3.59375,-14.34375 -6.96187,0.0362 -13.93321,0.13657 -20.875,-0.5 l -0.40199,0.91564 L 396,612.84375 z"
           id="path3312"
           inkscape:connector-curvature="0" />
        <path
           style="font-size:40px;font-style:normal;font-variant:normal;font-weight:normal;font-stretch:normal;line-height:125%;letter-spacing:0px;word-spacing:0px;fill:#000000;fill-opacity:1;stroke:none;font-family:Armalite Rifle;-inkscape-font-specification:Armalite Rifle"
           d="m 427.3125,611.875 c -3.52296,1.24945 -8.76672,2.2278 -9.09375,6.6875 -2.23264,4.21567 -0.91188,9.85461 1.25,13.40625 -4.31457,3.08208 -3.7325,10.51316 -0.875,14.3125 2.98767,2.49207 6.67115,-0.83442 9.9375,0.65625 4.23178,-0.16516 8.54889,1.73009 12.1875,-1.625 6.69608,-4.09785 7.31461,-14.12887 2.46875,-19.375 3.21649,-0.84898 3.83255,-2.6104 3.0625,-5.875 0.87711,-4.54281 -3.10142,-10.06412 -7.84375,-7.5625 -3.65931,-0.71959 -7.0173,0.0187 -10.625,-0.65625 l -0.46875,0.0312 z"
           id="path3314"
           inkscape:connector-curvature="0" />
        <text
           xml:space="preserve"
           style="font-size:40px;font-style:normal;font-variant:normal;font-weight:normal;font-stretch:normal;line-height:125%;letter-spacing:0px;word-spacing:0px;fill:#ffffff;fill-opacity:1;stroke:none;font-family:Armalite Rifle;-inkscape-font-specification:Armalite Rifle"
           x="85.011047"
           y="643.25043"
           id="text3013"
           sodipodi:linespacing="125%"><tspan
             sodipodi:role="line"
             id="tspan3015"
             x="85.011047"
             y="643.25043">Mehdi ait younes</tspan></text>
      </g>
    </g>
  </g>
</svg>
